<?xml version="1.0" standalone="no"?>
<!DOCTYPE svg PUBLIC "-//W3C//DTD SVG 20010904//EN"
 "http://www.w3.org/TR/2001/REC-SVG-20010904/DTD/svg10.dtd">
<svg version="1.0" xmlns="http://www.w3.org/2000/svg"
 width="700.000000pt" height="700.000000pt" viewBox="0 0 700.000000 700.000000"
 preserveAspectRatio="xMidYMid meet">
<metadata>
Created by potrace 1.11, written by Peter Selinger 2001-2013
</metadata>
<g transform="translate(0.000000,700.000000) scale(0.100000,-0.100000)"
fill="#000000" stroke="none">
<path d="M4437 6980 c-113 -36 -197 -109 -250 -220 -30 -60 -32 -73 -32 -170
0 -98 2 -110 33 -175 32 -67 82 -119 1090 -1127 925 -924 1065 -1060 1117
-1086 84 -42 114 -50 192 -50 313 -1 509 338 355 611 -17 30 -144 165 -335
356 l-308 308 231 233 c144 144 238 246 247 268 21 50 18 123 -6 170 -27 53
-635 659 -681 678 -47 20 -117 20 -166 0 -27 -12 -112 -89 -269 -246 l-230
-229 -295 295 c-162 163 -311 308 -330 323 -93 73 -246 98 -363 61z"/>
<path d="M3280 6401 c-30 -10 -69 -25 -87 -34 -54 -28 -134 -118 -167 -187
-29 -60 -31 -73 -31 -170 0 -98 2 -110 33 -175 32 -67 90 -126 1385 -1421
1065 -1063 1363 -1356 1403 -1376 173 -87 368 -51 497 91 120 133 136 345 37
496 -28 44 -2678 2692 -2725 2724 -64 44 -124 63 -210 66 -57 3 -96 -1 -135
-14z"/>
<path d="M3064 3935 l-620 -624 435 -435 435 -435 618 622 c340 341 618 624
618 628 0 4 -844 852 -863 866 -1 1 -282 -279 -623 -622z"/>
<path d="M925 4006 c-5 -2 -30 -9 -55 -17 -244 -71 -358 -360 -234 -589 18
-32 441 -462 1367 -1388 738 -738 1358 -1352 1377 -1365 121 -80 301 -85 426
-12 65 38 134 114 168 185 29 60 31 73 31 170 0 98 -2 110 -33 175 -32 67 -89
126 -1345 1383 -722 723 -1338 1335 -1369 1362 -72 61 -151 92 -248 96 -41 2
-79 2 -85 0z"/>
<path d="M283 2828 c-174 -59 -285 -221 -278 -403 3 -72 29 -156 64 -209 11
-17 158 -168 326 -336 l306 -307 -228 -229 c-127 -127 -236 -245 -246 -266
-23 -49 -22 -129 2 -176 25 -47 634 -654 680 -677 45 -22 127 -22 172 0 19 9
138 120 264 246 l230 229 310 -311 c284 -284 316 -313 382 -345 207 -100 441
-17 545 195 31 61 33 72 33 171 0 192 95 81 -1094 1274 -570 571 -1062 1058
-1094 1082 -108 81 -248 104 -374 62z"/>
</g>
</svg>
